<?xml version="1.0" encoding="utf-8"?>
<!-- Generator: Adobe Illustrator 21.0.0, SVG Export Plug-In . SVG Version: 6.00 Build 0)  -->
<svg version="1.1" id="Layer_1" xmlns="http://www.w3.org/2000/svg" xmlns:xlink="http://www.w3.org/1999/xlink" x="0px" y="0px"
	 viewBox="0 0 157.1 157.8" style="enable-background:new 0 0 157.1 157.8;" xml:space="preserve">
<g>
	<path d="M73.8,87.5c-0.4-0.2-0.8-0.1-1,0.2c-0.2,0.4-0.1,0.8,0.2,1l6,3.7l-6,3.7c-0.4,0.2-0.5,0.7-0.2,1c0.1,0.2,0.4,0.4,0.6,0.4
		c0.1,0,0.3,0,0.4-0.1l7-4.4c0.2-0.1,0.4-0.4,0.4-0.6c0-0.3-0.1-0.5-0.4-0.6L73.8,87.5z"/>
	<path d="M59.5,87.7c-0.2-0.4-0.7-0.5-1-0.2l-7,4.4c-0.2,0.1-0.4,0.4-0.4,0.6c0,0.3,0.1,0.5,0.4,0.6l7,4.4c0.1,0.1,0.3,0.1,0.4,0.1
		c0.3,0,0.5-0.1,0.6-0.4c0.2-0.4,0.1-0.8-0.2-1l-6-3.7l6-3.7C59.6,88.6,59.7,88.1,59.5,87.7z"/>
	<path d="M68.9,85.1c-0.4-0.1-0.8,0-1,0.4l-5,13.2c-0.1,0.4,0,0.8,0.4,1c0.1,0,0.2,0,0.3,0c0.3,0,0.6-0.2,0.7-0.5l5-13.2
		C69.5,85.7,69.3,85.2,68.9,85.1z"/>
	<path d="M77.5,47.2l3.3,1.8c-0.2,1-0.4,2.1-0.4,3.1H36.1c-2.9,0-5.3,2.4-5.3,5.3v51.2c0,0.4,0.3,0.8,0.8,0.8h95.3
		c0.4,0,0.8-0.3,0.8-0.8V57.5c0-2.9-2.4-5.3-5.3-5.3h-7.8c0-0.9-0.1-1.8-0.3-2.7l3.4-1.8c0.3-0.2,0.5-0.6,0.4-0.9l-1.4-3.5
		c-0.1-0.4-0.5-0.5-0.9-0.4l-3.6,1c-1.3-2.1-3.1-3.9-5.1-5.3l1.1-3.6c0.1-0.4-0.1-0.8-0.4-0.9l-3.5-1.5c-0.4-0.2-0.8,0-1,0.3
		l-1.8,3.3c-2.4-0.6-4.9-0.6-7.4-0.1l-1.8-3.4c-0.2-0.3-0.6-0.5-0.9-0.4l-3.5,1.4c-0.4,0.1-0.6,0.5-0.4,0.9l1,3.6
		c-2.1,1.3-3.9,3.1-5.3,5.1l-3.6-1.1c-0.4-0.1-0.8,0.1-0.9,0.4l-1.5,3.5C77,46.6,77.1,47,77.5,47.2z M126.1,57.5V108H32.3V57.5
		c0-2.1,1.7-3.8,3.8-3.8h44.3c0,0.9,0.1,1.8,0.3,2.7l-3.4,1.8c-0.3,0.2-0.5,0.6-0.4,0.9l1.4,3.5c0.1,0.4,0.5,0.5,0.9,0.4l3.6-1
		c1.3,2.1,3.1,3.9,5.1,5.3l-1,3.6c-0.1,0.4,0.1,0.8,0.4,0.9l3.5,1.5c0.4,0.2,0.8,0,1-0.3l1.8-3.3c2.4,0.6,4.9,0.6,7.4,0.1l1.8,3.4
		c0.1,0.3,0.4,0.4,0.7,0.4c0.1,0,0.2,0,0.3-0.1l3.5-1.4c0.4-0.1,0.6-0.5,0.4-0.9l-1-3.6c2.1-1.3,3.9-3.1,5.3-5.1l3.6,1.1
		c0.4,0.1,0.8-0.1,0.9-0.4l1.5-3.5c0.2-0.4,0-0.8-0.3-1l-3.3-1.8c0.2-1,0.4-2.1,0.4-3.1h7.6C124.3,53.7,126.1,55.4,126.1,57.5z
		 M79.7,44l3.5,1.1c0.3,0.1,0.7,0,0.9-0.3c1.4-2.2,3.3-4.1,5.6-5.4c0.3-0.2,0.4-0.5,0.3-0.9L89,35l2.2-0.9l1.7,3.3
		c0.2,0.3,0.5,0.5,0.8,0.4c2.6-0.6,5.2-0.6,7.8,0.1c0.3,0.1,0.7-0.1,0.9-0.4l1.8-3.2l2.2,0.9l-1.1,3.5c-0.1,0.3,0,0.7,0.3,0.9
		c2.2,1.4,4.1,3.3,5.4,5.6c0.2,0.3,0.5,0.4,0.9,0.3l3.5-1l0.9,2.2l-3.3,1.7c-0.3,0.2-0.5,0.5-0.4,0.8c0.6,2.6,0.6,5.2-0.1,7.8
		c-0.1,0.3,0.1,0.7,0.4,0.9l3.2,1.8l-0.9,2.2l-3.5-1.1c-0.3-0.1-0.7,0-0.9,0.3c-1.4,2.2-3.3,4.1-5.6,5.4c-0.3,0.2-0.4,0.5-0.3,0.9
		l1,3.5l-2.2,0.9l-1.7-3.3c-0.1-0.3-0.4-0.4-0.7-0.4c-0.1,0-0.1,0-0.2,0c-2.6,0.6-5.2,0.6-7.8-0.1c-0.3-0.1-0.7,0.1-0.9,0.4
		l-1.8,3.2l-2-0.9l1.1-3.5c0.1-0.3,0-0.7-0.3-0.9c-2.2-1.4-4.1-3.3-5.4-5.6c-0.2-0.3-0.5-0.4-0.9-0.3l-3.5,1l-1-2.2l3.3-1.7
		c0.3-0.2,0.5-0.5,0.4-0.8c-0.3-1.2-0.4-2.4-0.4-3.6V53c0-0.1,0-0.1,0-0.1c0-1.3,0.2-2.6,0.5-3.9c0.1-0.3-0.1-0.7-0.4-0.9l-3.2-1.8
		L79.7,44z"/>
	<path d="M92.9,63.7c1.5,0.6,3.1,0.9,4.6,0.9c4.5,0,8.9-2.7,10.8-7.1c1.2-2.9,1.3-6.1,0.1-9c-1.2-2.9-3.4-5.2-6.3-6.4
		c-2.9-1.2-6.1-1.3-9-0.1c-2.9,1.2-5.2,3.4-6.4,6.3c-1.2,2.9-1.3,6.1-0.1,9C87.8,60.2,90,62.5,92.9,63.7z M88.1,48.9
		c1.1-2.5,3.1-4.4,5.6-5.5c1.2-0.5,2.5-0.7,3.8-0.7c1.4,0,2.7,0.3,4,0.8c2.5,1.1,4.4,3.1,5.5,5.6c1,2.5,1,5.3-0.1,7.8
		c-2.2,5.2-8.2,7.6-13.4,5.4c-2.5-1.1-4.4-3.1-5.5-5.6C87,54.2,87,51.4,88.1,48.9z"/>
	<path d="M124.5,25.7c0.1,0.1,0.3,0.2,0.5,0.2s0.4-0.1,0.5-0.2c0.3-0.3,0.3-0.8,0-1.1l-1.6-1.6c-0.3-0.3-0.8-0.3-1.1,0
		c-0.3,0.3-0.3,0.8,0,1.1L124.5,25.7z"/>
	<path d="M129.7,30.9c0.1,0.1,0.3,0.2,0.5,0.2s0.4-0.1,0.5-0.2c0.3-0.3,0.3-0.8,0-1.1l-1.6-1.6c-0.3-0.3-0.8-0.3-1.1,0
		c-0.3,0.3-0.3,0.8,0,1.1L129.7,30.9z"/>
	<path d="M123.4,31.1c0.2,0,0.4-0.1,0.5-0.2l1.6-1.6c0.3-0.3,0.3-0.8,0-1.1c-0.3-0.3-0.8-0.3-1.1,0l-1.6,1.6c-0.3,0.3-0.3,0.8,0,1.1
		C123,31,123.2,31.1,123.4,31.1z"/>
	<path d="M128.6,25.9c0.2,0,0.4-0.1,0.5-0.2l1.6-1.6c0.3-0.3,0.3-0.8,0-1.1c-0.3-0.3-0.8-0.3-1.1,0l-1.6,1.6c-0.3,0.3-0.3,0.8,0,1.1
		C128.2,25.8,128.4,25.9,128.6,25.9z"/>
	<path d="M16.4,126.2c-0.3-0.3-0.8-0.3-1.1,0s-0.3,0.8,0,1.1l1.6,1.6c0.1,0.1,0.3,0.2,0.5,0.2c0.2,0,0.4-0.1,0.5-0.2
		c0.3-0.3,0.3-0.8,0-1.1L16.4,126.2z"/>
	<path d="M21.6,131.4c-0.3-0.3-0.8-0.3-1.1,0c-0.3,0.3-0.3,0.8,0,1.1l1.6,1.6c0.1,0.1,0.3,0.2,0.5,0.2c0.2,0,0.4-0.1,0.5-0.2
		c0.3-0.3,0.3-0.8,0-1.1L21.6,131.4z"/>
	<path d="M16.9,131.4l-1.6,1.6c-0.3,0.3-0.3,0.8,0,1.1c0.1,0.1,0.3,0.2,0.5,0.2s0.4-0.1,0.5-0.2l1.6-1.6c0.3-0.3,0.3-0.8,0-1.1
		C17.7,131.1,17.2,131.1,16.9,131.4z"/>
	<path d="M22.1,126.2l-1.6,1.6c-0.3,0.3-0.3,0.8,0,1.1c0.1,0.1,0.3,0.2,0.5,0.2c0.2,0,0.4-0.1,0.5-0.2l1.6-1.6
		c0.3-0.3,0.3-0.8,0-1.1C22.9,125.9,22.4,125.9,22.1,126.2z"/>
	<path d="M19.3,54.7c0.4,0,0.8-0.3,0.8-0.8V42.2c0-0.4-0.3-0.8-0.8-0.8s-0.8,0.3-0.8,0.8v11.7C18.5,54.3,18.8,54.7,19.3,54.7z"/>
	<path d="M19.3,64.4c0.4,0,0.8-0.3,0.8-0.8v-4.2c0-0.4-0.3-0.8-0.8-0.8s-0.8,0.3-0.8,0.8v4.2C18.5,64.1,18.8,64.4,19.3,64.4z"/>
	<path d="M136,78.6c0.4,0,0.8-0.3,0.8-0.8V66c0-0.4-0.3-0.8-0.8-0.8c-0.4,0-0.8,0.3-0.8,0.8v11.8C135.2,78.2,135.6,78.6,136,78.6z"
		/>
	<path d="M136,88.3c0.4,0,0.8-0.3,0.8-0.8v-4.2c0-0.4-0.3-0.8-0.8-0.8c-0.4,0-0.8,0.3-0.8,0.8v4.2C135.2,88,135.6,88.3,136,88.3z"/>
	<path d="M71.4,35c1.9,0,3.5-1.6,3.5-3.5S73.3,28,71.4,28s-3.5,1.6-3.5,3.5S69.4,35,71.4,35z M71.4,29.5c1.1,0,2,0.9,2,2s-0.9,2-2,2
		s-2-0.9-2-2S70.3,29.5,71.4,29.5z"/>
	<path d="M63.3,125.5c-1.9,0-3.5,1.6-3.5,3.5c0,1.9,1.6,3.5,3.5,3.5s3.5-1.6,3.5-3.5C66.8,127,65.2,125.5,63.3,125.5z M63.3,131
		c-1.1,0-2-0.9-2-2c0-1.1,0.9-2,2-2s2,0.9,2,2C65.3,130.1,64.4,131,63.3,131z"/>
	<path d="M22.8,95.1c0-1.9-1.6-3.5-3.5-3.5s-3.5,1.6-3.5,3.5s1.6,3.5,3.5,3.5S22.8,97.1,22.8,95.1z M19.3,97.1c-1.1,0-2-0.9-2-2
		s0.9-2,2-2s2,0.9,2,2C21.3,96.2,20.4,97.1,19.3,97.1z"/>
	<path d="M35.3,33c0,0.4,0.3,0.8,0.8,0.8h15.4c0.4,0,0.8-0.3,0.8-0.8c0-0.4-0.3-0.8-0.8-0.8H36.1C35.7,32.2,35.3,32.6,35.3,33z"/>
	<path d="M26,33.7h5c0.4,0,0.8-0.3,0.8-0.8c0-0.4-0.3-0.8-0.8-0.8h-5c-0.4,0-0.8,0.3-0.8,0.8C25.3,33.4,25.6,33.7,26,33.7z"/>
	<path d="M26,28.5h10.8c0.4,0,0.8-0.3,0.8-0.8s-0.4-0.8-0.8-0.8H26c-0.4,0-0.8,0.3-0.8,0.8S25.6,28.5,26,28.5z"/>
	<path d="M41.4,28.5h3.5c0.4,0,0.8-0.3,0.8-0.8s-0.4-0.8-0.8-0.8h-3.5c-0.4,0-0.8,0.3-0.8,0.8S41,28.5,41.4,28.5z"/>
	<path d="M132,129c0-0.4-0.3-0.8-0.8-0.8h-15.4c-0.4,0-0.8,0.3-0.8,0.8c0,0.4,0.3,0.8,0.8,0.8h15.4C131.7,129.7,132,129.4,132,129z"
		/>
	<path d="M135.6,129c0,0.4,0.3,0.8,0.8,0.8h5c0.4,0,0.8-0.3,0.8-0.8c0-0.4-0.3-0.8-0.8-0.8h-5C135.9,128.2,135.6,128.5,135.6,129z"
		/>
	<path d="M141.3,133.5h-10.7c-0.4,0-0.8,0.3-0.8,0.8c0,0.4,0.3,0.8,0.8,0.8h10.8c0.4,0,0.8-0.3,0.8-0.8
		C142.1,133.8,141.8,133.5,141.3,133.5z"/>
	<path d="M126,133.5h-3.5c-0.4,0-0.8,0.3-0.8,0.8c0,0.4,0.3,0.8,0.8,0.8h3.5c0.4,0,0.8-0.3,0.8-0.8
		C126.7,133.8,126.4,133.5,126,133.5z"/>
	<path d="M136.4,116.4l1.1-1.9c0.2-0.4,0.3-0.9,0-1.3c-0.2-0.4-0.7-0.7-1.1-0.7H22c-0.5,0-0.9,0.3-1.1,0.7c-0.2,0.4-0.2,0.9,0,1.3
		l1.1,1.9c1.9,3.2,5.5,5.2,9.2,5.2h95.9C130.9,121.6,134.4,119.6,136.4,116.4z M23.2,115.6l-0.9-1.6H136l-0.9,1.6
		c-1.7,2.8-4.7,4.5-8,4.5H31.2C28,120.1,24.9,118.4,23.2,115.6z"/>
	<path d="M88.7,81.5H43.5c-1.8,0-3.2,1.4-3.2,3.2V100c0,1.8,1.4,3.2,3.2,3.2h45.2c1.8,0,3.2-1.4,3.2-3.2V84.7
		C92,83,90.5,81.5,88.7,81.5z M90.4,100c0,0.9-0.8,1.7-1.7,1.7H43.5c-0.9,0-1.7-0.8-1.7-1.7V84.7c0-0.9,0.8-1.7,1.7-1.7h45.2
		c0.9,0,1.7,0.8,1.7,1.7C90.4,84.7,90.4,100,90.4,100z"/>
</g>
</svg>
